<svg data-v-423bf9ae="" xmlns="http://www.w3.org/2000/svg" viewBox="0 0 307 100" class="iconLeftSlogan"><!----><!----><!----><g data-v-423bf9ae="" id="b20c36bd-8369-4dc9-a0a3-b150b2c6f21c" fill="black" transform="matrix(4.687213897705078,0,0,4.687213897705078,90.75732421875,-3.7900516986846924)"><path d="M0.18 1.78L3.16 1.78L3.16 10.50L4.23 10.50L4.23 1.78L7.18 1.78L7.18 0.81L0.18 0.81ZM12.07 5.61C12.07 4.09 11.40 3.36 9.81 3.36C8.61 3.36 7.07 3.67 7.07 3.67L7.11 4.47C7.11 4.47 8.78 4.28 9.76 4.28C10.60 4.28 11.02 4.63 11.02 5.61L11.02 6.22L8.82 6.43C7.38 6.57 6.68 7.15 6.68 8.50C6.68 9.91 7.38 10.64 8.65 10.64C9.91 10.64 11.17 10.08 11.17 10.08C11.59 10.50 12.10 10.64 12.84 10.64L12.88 9.81C12.43 9.76 12.10 9.60 12.07 9.20ZM11.02 7.01L11.02 9.32C11.02 9.32 9.86 9.76 8.82 9.76C8.11 9.76 7.76 9.28 7.76 8.47C7.76 7.70 8.09 7.29 8.95 7.21ZM16.83 3.36C14.62 3.36 13.83 4.51 13.83 6.92C13.83 9.46 14.48 10.64 16.83 10.64C19.19 10.64 19.82 9.46 19.82 6.92C19.82 4.51 19.05 3.36 16.83 3.36ZM16.83 9.73C15.18 9.73 14.91 8.90 14.91 6.92C14.91 4.97 15.34 4.27 16.83 4.27C18.33 4.27 18.75 4.97 18.75 6.92C18.75 8.90 18.49 9.73 16.83 9.73ZM23.94 10.50L25.00 10.50L25.70 8.01L29.85 8.01L30.55 10.50L31.61 10.50L28.95 0.81L26.60 0.81ZM27.41 1.74L28.14 1.74L29.61 7.04L25.94 7.04ZM32.96 13.61L34.01 13.61L34.01 10.49C34.20 10.53 34.92 10.64 35.57 10.64C37.73 10.64 38.63 9.66 38.63 6.92C38.63 4.44 37.86 3.36 36.09 3.36C35.06 3.36 33.99 4.00 33.99 4.00L33.99 3.50L32.96 3.50ZM35.94 4.30C36.96 4.30 37.56 5.00 37.56 6.92C37.56 8.93 37.06 9.73 35.52 9.73C34.92 9.73 34.19 9.60 34.01 9.58L34.01 4.86C34.01 4.86 34.99 4.30 35.94 4.30ZM40.33 13.61L41.38 13.61L41.38 10.49C41.58 10.53 42.29 10.64 42.95 10.64C45.11 10.64 46.00 9.66 46.00 6.92C46.00 4.44 45.23 3.36 43.47 3.36C42.43 3.36 41.37 4.00 41.37 4.00L41.37 3.50L40.33 3.50ZM43.32 4.30C44.34 4.30 44.94 5.00 44.94 6.92C44.94 8.93 44.44 9.73 42.90 9.73C42.29 9.73 41.57 9.60 41.38 9.58L41.38 4.86C41.38 4.86 42.36 4.30 43.32 4.30Z"></path></g><!----><g data-v-423bf9ae="" id="2b38c02d-51a3-4b2a-b4d3-056d868e452e" transform="matrix(1.0505207777023315,0,0,1.0505207777023315,-16.62074089050293,-1.7627699375152588)" stroke="none" fill="black"><path d="M50.708 29.67c7.635 0 13.831-6.195 13.831-13.839C64.539 8.193 58.343 2 50.708 2c-7.645 0-13.837 6.193-13.837 13.831 0 7.644 6.192 13.839 13.837 13.839zM77.411 82.244a4.3 4.3 0 0 0 2.681.935 4.316 4.316 0 0 0 2.687-7.693c-9.213-7.315-18.863-29.35-21.805-37.223a4.27 4.27 0 0 0-1.028-1.56 3.665 3.665 0 0 0-1.425-1.631c-2.122-2.334-5.213-3.761-8.586-3.642-5.12.17-9.289 3.796-10.399 8.559-3.078 6.745-11.636 24.175-21.69 33.165a4.316 4.316 0 0 0 5.752 6.434c6.17-5.518 11.689-13.533 15.975-20.874.038 3.036.064 6.315.064 9.711 0 1.057.158 2.076.435 3.044-22.03 11.206-25.333 15.346-23.317 20.664 1.186 3.139 3.998 4.415 8.776 4.413 3.938 0 9.217-.864 16.03-2.273 2.803-.578 5.57-1.203 8.062-1.789 10.895 2.809 17.833 4.038 22.329 4.038 5.186 0 7.141-1.629 8.235-4.341 1.151-2.84 3.039-7.53-19.064-19.914.439-1.202.696-2.489.696-3.842 0-2.595-.016-5.112-.038-7.511 4.286 8.103 9.762 16.67 15.63 21.33zm-26.879 1.652c-1.13-.298-2.327-.626-3.601-.981.684-.354 1.397-.716 2.149-1.084a8.944 8.944 0 0 0 2.195.292c.519 0 1.023-.053 1.511-.142.211.172.436.324.681.457.294.163.582.329.874.487-1.254.334-2.535.655-3.809.971z"></path></g><!----><g data-v-423bf9ae="" id="1f3aac62-c350-4796-a526-60e38b4c4204" fill="black" transform="matrix(0.45241162180900574,0,0,0.45241162180900574,91.06055450439453,57.430442810058594)"><path d="M7.35 12.15L7.35 15.68L6.17 15.68L6.17 12.40L6.17 12.40Q6.17 12.04 6.01 11.84L6.01 11.84L6.01 11.84Q5.84 11.65 5.42 11.65L5.42 11.65L2.37 11.65L2.37 15.68L1.19 15.68L1.19 5.88L4.69 5.88L4.69 5.88Q5.45 5.88 6.01 6.10L6.01 6.10L6.01 6.10Q6.57 6.31 6.94 6.68L6.94 6.68L6.94 6.68Q7.31 7.04 7.50 7.53L7.50 7.53L7.50 7.53Q7.69 8.01 7.69 8.54L7.69 8.54L7.69 8.96L7.69 8.96Q7.69 9.51 7.38 10.05L7.38 10.05L7.38 10.05Q7.08 10.60 6.45 10.89L6.45 10.89L6.45 11.06L6.45 11.06Q6.87 11.13 7.11 11.40L7.11 11.40L7.11 11.40Q7.35 11.66 7.35 12.15L7.35 12.15ZM2.37 6.97L2.37 10.56L4.55 10.56L4.55 10.56Q5.54 10.56 6.03 10.13L6.03 10.13L6.03 10.13Q6.51 9.70 6.51 8.88L6.51 8.88L6.51 8.62L6.51 8.62Q6.51 7.88 6.03 7.43L6.03 7.43L6.03 7.43Q5.54 6.97 4.55 6.97L4.55 6.97L2.37 6.97ZM16.88 15.68L16.88 5.88L22.82 5.88L22.82 6.97L18.06 6.97L18.06 10.22L22.74 10.22L22.74 11.31L18.06 11.31L18.06 14.59L22.90 14.59L22.90 15.68L16.88 15.68ZM32.35 15.68L32.35 5.88L33.53 5.88L33.53 14.59L38.65 14.59L38.65 15.68L32.35 15.68ZM53.80 15.68L53.09 13.24L48.89 13.24L48.17 15.68L46.91 15.68L49.88 5.88L52.09 5.88L55.06 15.68L53.80 15.68ZM51.07 6.38L50.90 6.38L49.21 12.15L52.77 12.15L51.07 6.38ZM62.94 5.88L64.23 5.88L66.43 10.22L66.68 10.22L68.88 5.88L70.17 5.88L67.72 10.68L67.72 10.85L70.17 15.68L68.88 15.68L66.68 11.31L66.43 11.31L64.23 15.68L62.94 15.68L65.39 10.85L65.39 10.68L62.94 5.88ZM100.51 15.68L99.79 13.24L95.59 13.24L94.88 15.68L93.62 15.68L96.59 5.88L98.80 5.88L101.77 15.68L100.51 15.68ZM97.78 6.38L97.61 6.38L95.91 12.15L99.47 12.15L97.78 6.38ZM112.35 5.88L115.18 15.18L115.35 15.18L115.35 5.88L116.52 5.88L116.52 15.68L114.17 15.68L111.34 6.38L111.17 6.38L111.17 15.68L110.00 15.68L110.00 5.88L112.35 5.88ZM125.57 6.97L125.57 5.88L128.79 5.88L128.79 5.88Q130.61 5.88 131.45 6.75L131.45 6.75L131.45 6.75Q132.29 7.62 132.29 9.52L132.29 9.52L132.29 12.04L132.29 12.04Q132.29 13.94 131.45 14.81L131.45 14.81L131.45 14.81Q130.61 15.68 128.79 15.68L128.79 15.68L125.57 15.68L125.57 14.57L126.41 14.57L126.41 6.97L125.57 6.97ZM127.58 14.59L128.62 14.59L128.62 14.59Q129.26 14.59 129.73 14.46L129.73 14.46L129.73 14.46Q130.20 14.34 130.51 14.04L130.51 14.04L130.51 14.04Q130.82 13.73 130.96 13.23L130.96 13.23L130.96 13.23Q131.11 12.73 131.11 11.96L131.11 11.96L131.11 9.60L131.11 9.60Q131.11 8.83 130.96 8.33L130.96 8.33L130.96 8.33Q130.82 7.83 130.51 7.53L130.51 7.53L130.51 7.53Q130.20 7.22 129.73 7.10L129.73 7.10L129.73 7.10Q129.26 6.97 128.62 6.97L128.62 6.97L127.58 6.97L127.58 14.59ZM157.00 15.68L157.00 5.88L162.93 5.88L162.93 6.97L158.17 6.97L158.17 10.22L162.85 10.22L162.85 11.31L158.17 11.31L158.17 14.59L163.02 14.59L163.02 15.68L157.00 15.68ZM174.62 5.88L177.45 15.18L177.62 15.18L177.62 5.88L178.79 5.88L178.79 15.68L176.44 15.68L173.61 6.38L173.45 6.38L173.45 15.68L172.27 15.68L172.27 5.88L174.62 5.88ZM193.89 6.97L193.89 12.74L193.89 12.74Q193.89 14.27 193.14 15.07L193.14 15.07L193.14 15.07Q192.39 15.88 190.95 15.88L190.95 15.88L190.95 15.88Q189.50 15.88 188.67 15.07L188.67 15.07L188.67 15.07Q187.84 14.27 187.84 12.74L187.84 12.74L187.84 11.98L189.01 11.98L189.01 12.74L189.01 12.74Q189.01 13.66 189.49 14.22L189.49 14.22L189.49 14.22Q189.97 14.78 190.95 14.78L190.95 14.78L190.95 14.78Q191.93 14.78 192.32 14.22L192.32 14.22L192.32 14.22Q192.71 13.66 192.71 12.74L192.71 12.74L192.71 6.97L191.70 6.97L191.70 5.88L194.73 5.88L194.73 6.97L193.89 6.97ZM203.22 11.87L203.22 9.69L203.22 9.69Q203.22 7.78 204.13 6.73L204.13 6.73L204.13 6.73Q205.04 5.68 206.67 5.68L206.67 5.68L206.67 5.68Q208.29 5.68 209.20 6.73L209.20 6.73L209.20 6.73Q210.11 7.78 210.11 9.69L210.11 9.69L210.11 11.87L210.11 11.87Q210.11 13.83 209.20 14.85L209.20 14.85L209.20 14.85Q208.29 15.88 206.67 15.88L206.67 15.88L206.67 15.88Q205.04 15.88 204.13 14.85L204.13 14.85L204.13 14.85Q203.22 13.83 203.22 11.87L203.22 11.87ZM206.67 14.78L206.67 14.78L206.67 14.78Q207.80 14.78 208.37 14.01L208.37 14.01L208.37 14.01Q208.94 13.23 208.94 11.79L208.94 11.79L208.94 9.77L208.94 9.77Q208.94 8.43 208.37 7.60L208.37 7.60L208.37 7.60Q207.80 6.78 206.67 6.78L206.67 6.78L206.67 6.78Q205.53 6.78 204.97 7.60L204.97 7.60L204.97 7.60Q204.40 8.43 204.40 9.77L204.40 9.77L204.40 11.79L204.40 11.79Q204.40 13.23 204.97 14.01L204.97 14.01L204.97 14.01Q205.53 14.78 206.67 14.78ZM221.65 15.68L221.65 12.24L221.40 12.24L218.33 5.88L219.65 5.88L222.15 11.23L222.32 11.23L224.83 5.88L226.14 5.88L223.08 12.24L222.82 12.24L222.82 15.68L221.65 15.68ZM252.78 15.68L252.78 12.24L252.53 12.24L249.47 5.88L250.78 5.88L253.29 11.23L253.46 11.23L255.96 5.88L257.28 5.88L254.21 12.24L253.96 12.24L253.96 15.68L252.78 15.68ZM265.50 11.87L265.50 9.69L265.50 9.69Q265.50 7.78 266.41 6.73L266.41 6.73L266.41 6.73Q267.32 5.68 268.94 5.68L268.94 5.68L268.94 5.68Q270.56 5.68 271.47 6.73L271.47 6.73L271.47 6.73Q272.38 7.78 272.38 9.69L272.38 9.69L272.38 11.87L272.38 11.87Q272.38 13.83 271.47 14.85L271.47 14.85L271.47 14.85Q270.56 15.88 268.94 15.88L268.94 15.88L268.94 15.88Q267.32 15.88 266.41 14.85L266.41 14.85L266.41 14.85Q265.50 13.83 265.50 11.87L265.50 11.87ZM268.94 14.78L268.94 14.78L268.94 14.78Q270.07 14.78 270.64 14.01L270.64 14.01L270.64 14.01Q271.21 13.23 271.21 11.79L271.21 11.79L271.21 9.77L271.21 9.77Q271.21 8.43 270.64 7.60L270.64 7.60L270.64 7.60Q270.07 6.78 268.94 6.78L268.94 6.78L268.94 6.78Q267.81 6.78 267.24 7.60L267.24 7.60L267.24 7.60Q266.67 8.43 266.67 9.77L266.67 9.77L266.67 11.79L266.67 11.79Q266.67 13.23 267.24 14.01L267.24 14.01L267.24 14.01Q267.81 14.78 268.94 14.78ZM281.15 5.88L282.32 5.88L282.32 12.38L282.32 12.38Q282.32 13.57 282.88 14.17L282.88 14.17L282.88 14.17Q283.43 14.78 284.51 14.78L284.51 14.78L284.51 14.78Q285.59 14.78 286.14 14.17L286.14 14.17L286.14 14.17Q286.69 13.57 286.69 12.38L286.69 12.38L286.69 5.88L287.87 5.88L287.87 12.38L287.87 12.38Q287.87 14.08 286.97 14.98L286.97 14.98L286.97 14.98Q286.08 15.88 284.51 15.88L284.51 15.88L284.51 15.88Q282.94 15.88 282.04 14.98L282.04 14.98L282.04 14.98Q281.15 14.08 281.15 12.38L281.15 12.38L281.15 5.88ZM303.14 12.15L303.14 15.68L301.97 15.68L301.97 12.40L301.97 12.40Q301.97 12.04 301.80 11.84L301.80 11.84L301.80 11.84Q301.63 11.65 301.21 11.65L301.21 11.65L298.16 11.65L298.16 15.68L296.98 15.68L296.98 5.88L300.48 5.88L300.48 5.88Q301.24 5.88 301.80 6.10L301.80 6.10L301.80 6.10Q302.36 6.31 302.73 6.68L302.73 6.68L302.73 6.68Q303.10 7.04 303.29 7.53L303.29 7.53L303.29 7.53Q303.48 8.01 303.48 8.54L303.48 8.54L303.48 8.96L303.48 8.96Q303.48 9.51 303.18 10.05L303.18 10.05L303.18 10.05Q302.88 10.60 302.25 10.89L302.25 10.89L302.25 11.06L302.25 11.06Q302.67 11.13 302.90 11.40L302.90 11.40L302.90 11.40Q303.14 11.66 303.14 12.15L303.14 12.15ZM298.16 6.97L298.16 10.56L300.34 10.56L300.34 10.56Q301.34 10.56 301.82 10.13L301.82 10.13L301.82 10.13Q302.30 9.70 302.30 8.88L302.30 8.88L302.30 8.62L302.30 8.62Q302.30 7.88 301.82 7.43L301.82 7.43L301.82 7.43Q301.34 6.97 300.34 6.97L300.34 6.97L298.16 6.97ZM328.15 15.68L328.15 5.88L329.32 5.88L329.32 14.59L334.45 14.59L334.45 15.68L328.15 15.68ZM343.67 6.97L343.67 5.88L349.89 5.88L349.89 6.97L347.37 6.97L347.37 14.59L349.89 14.59L349.89 15.68L343.67 15.68L343.67 14.59L346.19 14.59L346.19 6.97L343.67 6.97ZM359.39 15.68L359.39 5.88L365.41 5.88L365.41 6.97L360.57 6.97L360.57 10.22L365.33 10.22L365.33 11.31L360.57 11.31L360.57 15.68L359.39 15.68ZM374.95 15.68L374.95 5.88L380.88 5.88L380.88 6.97L376.12 6.97L376.12 10.22L380.80 10.22L380.80 11.31L376.12 11.31L376.12 14.59L380.97 14.59L380.97 15.68L374.95 15.68Z"></path></g></svg>